<?xml version="1.0" encoding="UTF-8"?>
<svg version="1.1" xmlns="http://www.w3.org/2000/svg" width="186" height="162">
<path d="M0 0 C61.38 0 122.76 0 186 0 C186 53.46 186 106.92 186 162 C124.62 162 63.24 162 0 162 C0 108.54 0 55.08 0 0 Z " fill="#F4F4F5" transform="translate(0,0)"/>
<path d="M0 0 C21.78 0 43.56 0 66 0 C66.69695628 3.48478139 67.12075522 5.76979407 67.02172852 9.14770508 C67.00163223 9.92813675 66.98153595 10.70856842 66.96083069 11.51264954 C66.93379562 12.3399205 66.90676056 13.16719147 66.87890625 14.01953125 C66.84348976 15.30738777 66.84348976 15.30738777 66.80735779 16.6212616 C66.73104912 19.35185646 66.64688452 22.08214396 66.5625 24.8125 C66.50924644 26.66860497 66.45650629 28.52472474 66.40429688 30.38085938 C66.27643915 34.92082327 66.13795295 39.46028681 66 44 C57.42 44 48.84 44 40 44 C40 47.3 40 50.6 40 54 C66.4 54 92.8 54 120 54 C118.4049063 57.98773424 116.84821775 61.05633099 114.5625 64.625 C113.96566406 65.56601563 113.36882812 66.50703125 112.75390625 67.4765625 C110.04757609 71.37030255 110.04757609 71.37030255 108 73 C105.63989258 73.34057617 105.63989258 73.34057617 102.89453125 73.29296875 C101.91162109 73.28330078 100.92871094 73.27363281 99.91601562 73.26367188 C98.89185547 73.23853516 97.86769531 73.21339844 96.8125 73.1875 C95.77673828 73.17396484 94.74097656 73.16042969 93.67382812 73.14648438 C91.11536301 73.11111389 88.5579422 73.06175544 86 73 C85.505 69.04 85.505 69.04 85 65 C76.09 64.67 67.18 64.34 58 64 C58.99 68.455 58.99 68.455 60 73 C59.62890625 75.51171875 59.62890625 75.51171875 59 78 C58.86536766 80.93789589 58.90546041 83.87225112 58.9375 86.8125 C58.94201172 87.60076172 58.94652344 88.38902344 58.95117188 89.20117188 C58.96288688 91.13414761 58.98082002 93.06708393 59 95 C44.53944538 96.37719568 30.34614722 88.87653526 18 82 C17.12730469 81.55269531 16.25460938 81.10539062 15.35546875 80.64453125 C13.00882796 79.2431223 11.54427537 78.26025759 10 76 C9.35992717 71.91297758 9.52257053 68.09793625 10 64 C8.92621094 64.0928125 7.85242188 64.185625 6.74609375 64.28125 C-4.52813426 64.96077078 -4.52813426 64.96077078 -8.62109375 62.2890625 C-13 57.24558212 -13 57.24558212 -13 54 C-0.13 54 12.74 54 26 54 C26 50.7 26 47.4 26 44 C17.42 44 8.84 44 0 44 C0 29.48 0 14.96 0 0 Z " fill="#403E55" transform="translate(33,59)"/>
<path d="M0 0 C29.7 0 59.4 0 90 0 C90 0.33 90 0.66 90 1 C81.42 1 72.84 1 64 1 C64.99 5.455 64.99 5.455 66 10 C65.62890625 12.51171875 65.62890625 12.51171875 65 15 C64.86536766 17.93789589 64.90546041 20.87225112 64.9375 23.8125 C64.94201172 24.60076172 64.94652344 25.38902344 64.95117188 26.20117188 C64.96288688 28.13414761 64.98082002 30.06708393 65 32 C50.53944538 33.37719568 36.34614722 25.87653526 24 19 C22.69095703 18.32904297 22.69095703 18.32904297 21.35546875 17.64453125 C19.00882796 16.2431223 17.54427537 15.26025759 16 13 C15.33889645 8.77869124 15.61673395 5.3117431 16 1 C10.72 1 5.44 1 0 1 C0 0.67 0 0.34 0 0 Z " fill="#C4C3C6" transform="translate(27,122)"/>
<path d="M0 0 C1.4540625 0.0309375 1.4540625 0.0309375 2.9375 0.0625 C4.97028689 12.51331967 4.97028689 12.51331967 2.6875 15.9375 C0.77406302 17.16756663 -0.82961635 17.67752006 -3.0625 18.0625 C-3.0625 19.3825 -3.0625 20.7025 -3.0625 22.0625 C-2.134375 21.7840625 -2.134375 21.7840625 -1.1875 21.5 C0.9375 21.0625 0.9375 21.0625 2.9375 22.0625 C2.6075 27.0125 2.2775 31.9625 1.9375 37.0625 C0.6175 37.3925 -0.7025 37.7225 -2.0625 38.0625 C-1.629375 38.8359375 -1.19625 39.609375 -0.75 40.40625 C5.02102144 51.20019752 5.02102144 51.20019752 3.9375 58.0625 C2.06485394 62.64007925 -0.80004325 64.67552422 -5.0625 67.0625 C-6.7125 67.3925 -8.3625 67.7225 -10.0625 68.0625 C7.4275 68.3925 24.9175 68.7225 42.9375 69.0625 C42.9375 69.3925 42.9375 69.7225 42.9375 70.0625 C16.5375 70.0625 -9.8625 70.0625 -37.0625 70.0625 C-37.0625 66.7625 -37.0625 63.4625 -37.0625 60.0625 C-28.4825 60.0625 -19.9025 60.0625 -11.0625 60.0625 C-11.0625 45.8725 -11.0625 31.6825 -11.0625 17.0625 C-32.5125 16.7325 -53.9625 16.4025 -76.0625 16.0625 C-76.0625 15.7325 -76.0625 15.4025 -76.0625 15.0625 C-55.2725 14.7325 -34.4825 14.4025 -13.0625 14.0625 C-13.0625 12.4125 -13.0625 10.7625 -13.0625 9.0625 C-12.0625 8.0625 -12.0625 8.0625 -9.5 8 C-8.2934375 8.0309375 -8.2934375 8.0309375 -7.0625 8.0625 C-6.5675 10.0425 -6.5675 10.0425 -6.0625 12.0625 C-5.4025 12.0625 -4.7425 12.0625 -4.0625 12.0625 C-3.68031233 10.40635343 -3.34854898 8.73792976 -3.0625 7.0625 C-3.5575 6.5675 -3.5575 6.5675 -4.0625 6.0625 C-4.1875 3.5625 -4.1875 3.5625 -4.0625 1.0625 C-3.0625 0.0625 -3.0625 0.0625 0 0 Z " fill="#C0BEC5" transform="translate(110.0625,42.9375)"/>
<path d="M0 0 C5.33333333 0 10.66666667 0 16 0 C16 1.98 16 3.96 16 6 C14.02 6 12.04 6 10 6 C10 6.33 10 6.66 10 7 C11.98 7 13.96 7 16 7 C16.66 8.32 17.32 9.64 18 11 C18.33 9.68 18.66 8.36 19 7 C20.98 7 22.96 7 25 7 C25 11.29 25 15.58 25 20 C23.35 20.33 21.7 20.66 20 21 C19.34 19.35 18.68 17.7 18 16 C16.19320413 20.62369023 15.78160918 24.42528653 15.875 29.375 C15.89304688 30.62023437 15.91109375 31.86546875 15.9296875 33.1484375 C15.95289063 34.08945313 15.97609375 35.03046875 16 36 C14.02 36 12.04 36 10 36 C9.67 32.7 9.34 29.4 9 26 C8.34 26 7.68 26 7 26 C6.67 28.97 6.34 31.94 6 35 C4.02 35 2.04 35 0 35 C0 34.34 0 33.68 0 33 C-0.66 33 -1.32 33 -2 33 C-2.33 31.68 -2.66 30.36 -3 29 C-7.66663197 29.60012871 -7.66663197 29.60012871 -12.25 30.625 C-14 31 -14 31 -17 30 C-17.99 32.475 -17.99 32.475 -19 35 C-21.31 35 -23.62 35 -26 35 C-26 33.02 -26 31.04 -26 29 C-23.09399739 27.74335022 -21.20395416 27 -18 27 C-17.67 25.02 -17.34 23.04 -17 21 C-14.69 20.34 -12.38 19.68 -10 19 C-9.67 17.35 -9.34 15.7 -9 14 C-6 14 -3 14 0 14 C0 9.38 0 4.76 0 0 Z " fill="#E7EDF3" transform="translate(142,44)"/>
<path d="M0 0 C2.56322318 1.96331988 2.91571815 4.19635167 3.65234375 7.265625 C4.70421875 8.7815625 4.70421875 8.7815625 5.77734375 10.328125 C7.73902642 13.40142785 8.24432606 14.71373112 7.65234375 18.265625 C6.99234375 18.925625 6.33234375 19.585625 5.65234375 20.265625 C4.66234375 20.265625 3.67234375 20.265625 2.65234375 20.265625 C2.42546875 21.008125 2.19859375 21.750625 1.96484375 22.515625 C0.34310308 25.91355783 -1.20734212 27.20099858 -4.34765625 29.265625 C-7.5390625 29.796875 -7.5390625 29.796875 -10.91015625 29.765625 C-12.02519531 29.7759375 -13.14023437 29.78625 -14.2890625 29.796875 C-17.95674585 29.15983166 -18.93936138 28.00375156 -21.34765625 25.265625 C-24.44772826 24.06513093 -24.44772826 24.06513093 -27.34765625 23.265625 C-28.34765625 22.265625 -28.34765625 22.265625 -28.47265625 19.765625 C-28.34765625 17.265625 -28.34765625 17.265625 -27.34765625 16.265625 C-27.06286503 13.49004077 -26.89922606 10.71434655 -26.7265625 7.9296875 C-26.34765625 5.265625 -26.34765625 5.265625 -24.34765625 2.265625 C-16.53454626 -3.16014582 -8.49773374 -4.63216196 0 0 Z " fill="#F7B7BB" transform="translate(75.34765625,26.734375)"/>
<path d="M0 0 C0 10.56 0 21.12 0 32 C8.58 32 17.16 32 26 32 C26 35.3 26 38.6 26 42 C12.8 42.33 -0.4 42.66 -14 43 C-14 42.34 -14 41.68 -14 41 C-11.03 40.505 -11.03 40.505 -8 40 C-8.495 38.515 -8.495 38.515 -9 37 C-9.66 37 -10.32 37 -11 37 C-12.95518717 31.1344385 -11.9554939 25.9814875 -10.1875 20.1875 C-9.82011719 18.97835937 -9.45273437 17.76921875 -9.07421875 16.5234375 C-8.54248047 14.77933594 -8.54248047 14.77933594 -8 13 C-7.73832031 12.00226563 -7.47664063 11.00453125 -7.20703125 9.9765625 C-6.97371094 9.09742187 -6.74039062 8.21828125 -6.5 7.3125 C-6.3040625 6.54550781 -6.108125 5.77851562 -5.90625 4.98828125 C-4.84968874 2.67022228 -2.81614058 0 0 0 Z " fill="#C4C2C6" transform="translate(33,71)"/>
<path d="M0 0 C13.86 0 27.72 0 42 0 C42 4.95 42 9.9 42 15 C27.41422313 15.88937664 14.39947267 10.39064614 2 3 C1.34 2.01 0.68 1.02 0 0 Z " fill="#333242" transform="translate(49,138)"/>
<path d="M0 0 C1.4540625 0.0309375 1.4540625 0.0309375 2.9375 0.0625 C4.97028689 12.51331967 4.97028689 12.51331967 2.6875 15.9375 C0.77406302 17.16756663 -0.82961635 17.67752006 -3.0625 18.0625 C-3.0625 19.3825 -3.0625 20.7025 -3.0625 22.0625 C-2.134375 21.7840625 -2.134375 21.7840625 -1.1875 21.5 C0.9375 21.0625 0.9375 21.0625 2.9375 22.0625 C3.0625 28.8125 3.0625 28.8125 1.9375 31.0625 C-0.0425 31.0625 -2.0225 31.0625 -4.0625 31.0625 C-4.3925 32.3825 -4.7225 33.7025 -5.0625 35.0625 C-6.0525 31.1025 -6.0525 31.1025 -7.0625 27.0625 C-7.7225 27.0625 -8.3825 27.0625 -9.0625 27.0625 C-9.3925 37.9525 -9.7225 48.8425 -10.0625 60.0625 C-10.3925 60.0625 -10.7225 60.0625 -11.0625 60.0625 C-11.0625 45.8725 -11.0625 31.6825 -11.0625 17.0625 C-32.5125 16.7325 -53.9625 16.4025 -76.0625 16.0625 C-76.0625 15.7325 -76.0625 15.4025 -76.0625 15.0625 C-55.2725 14.7325 -34.4825 14.4025 -13.0625 14.0625 C-13.0625 12.4125 -13.0625 10.7625 -13.0625 9.0625 C-12.0625 8.0625 -12.0625 8.0625 -9.5 8 C-8.2934375 8.0309375 -8.2934375 8.0309375 -7.0625 8.0625 C-6.5675 10.0425 -6.5675 10.0425 -6.0625 12.0625 C-5.4025 12.0625 -4.7425 12.0625 -4.0625 12.0625 C-3.68031233 10.40635343 -3.34854898 8.73792976 -3.0625 7.0625 C-3.5575 6.5675 -3.5575 6.5675 -4.0625 6.0625 C-4.1875 3.5625 -4.1875 3.5625 -4.0625 1.0625 C-3.0625 0.0625 -3.0625 0.0625 0 0 Z " fill="#C5CBD8" transform="translate(110.0625,42.9375)"/>
<path d="M0 0 C2.56322318 1.96331988 2.91571815 4.19635167 3.65234375 7.265625 C4.70421875 8.7815625 4.70421875 8.7815625 5.77734375 10.328125 C7.73467581 13.39461189 8.06892156 14.72471361 7.65234375 18.265625 C5.67234375 19.255625 5.67234375 19.255625 3.65234375 20.265625 C3.32234375 17.295625 2.99234375 14.325625 2.65234375 11.265625 C1.99234375 11.265625 1.33234375 11.265625 0.65234375 11.265625 C0.32234375 10.605625 -0.00765625 9.945625 -0.34765625 9.265625 C-7.28067718 9.03831284 -13.56451985 9.84560392 -20.34765625 11.265625 C-21.00765625 13.245625 -21.66765625 15.225625 -22.34765625 17.265625 C-23.00765625 17.265625 -23.66765625 17.265625 -24.34765625 17.265625 C-24.01765625 19.575625 -23.68765625 21.885625 -23.34765625 24.265625 C-27.22265625 23.390625 -27.22265625 23.390625 -28.34765625 22.265625 C-28.47265625 19.765625 -28.47265625 19.765625 -28.34765625 17.265625 C-28.01765625 16.935625 -27.68765625 16.605625 -27.34765625 16.265625 C-27.06286503 13.49004077 -26.89922606 10.71434655 -26.7265625 7.9296875 C-26.34765625 5.265625 -26.34765625 5.265625 -24.34765625 2.265625 C-16.53454626 -3.16014582 -8.49773374 -4.63216196 0 0 Z " fill="#3B374D" transform="translate(75.34765625,26.734375)"/>
<path d="M0 0 C0.33 0.66 0.66 1.32 1 2 C3.64 2 6.28 2 9 2 C9 2.66 9 3.32 9 4 C9.66 4 10.32 4 11 4 C11 5.65 11 7.3 11 9 C11.66 9.33 12.32 9.66 13 10 C12.34 12.31 11.68 14.62 11 17 C12.65 17 14.3 17 16 17 C16 17.66 16 18.32 16 19 C14.68 19 13.36 19 12 19 C11.731875 19.680625 11.46375 20.36125 11.1875 21.0625 C9.83946694 24.39710809 8.42463702 27.69743237 7 31 C5.35 31 3.7 31 2 31 C2.020625 29.9275 2.04125 28.855 2.0625 27.75 C2.0142016 24.85209576 1.86844115 22.71387859 1 20 C0.34 20.99 -0.32 21.98 -1 23 C-2.01661577 18.62855218 -2.16888759 15.99531924 0 12 C0.66 11.67 1.32 11.34 2 11 C2.33 12.65 2.66 14.3 3 16 C4.32 16 5.64 16 7 16 C7.33 11.71 7.66 7.42 8 3 C6.02 3 4.04 3 2 3 C1.67 4.65 1.34 6.3 1 8 C0.34 7.67 -0.32 7.34 -1 7 C-1 5.68 -1 4.36 -1 3 C-2.98 3 -4.96 3 -7 3 C-7 4.98 -7 6.96 -7 9 C-7.33 9 -7.66 9 -8 9 C-8 6.36 -8 3.72 -8 1 C-6.865625 1.020625 -5.73125 1.04125 -4.5625 1.0625 C-1.18424326 1.41577477 -1.18424326 1.41577477 0 0 Z " fill="#ECF7FC" transform="translate(159,48)"/>
<path d="M0 0 C5.33333333 0 10.66666667 0 16 0 C16 1.98 16 3.96 16 6 C14.02 6 12.04 6 10 6 C9.34 8.31 8.68 10.62 8 13 C5.66705225 13.04241723 3.33297433 13.04092937 1 13 C0 12 0 12 -0.09765625 9.27734375 C-0.08605469 8.17519531 -0.07445312 7.07304688 -0.0625 5.9375 C-0.05347656 4.83277344 -0.04445312 3.72804687 -0.03515625 2.58984375 C-0.02355469 1.73519531 -0.01195312 0.88054688 0 0 Z " fill="#E7F2FD" transform="translate(142,44)"/>
<path d="M0 0 C5.94 0 11.88 0 18 0 C14.30429917 3.69570083 11.59751075 6.12925316 7.3125 8.8125 C6.35988281 9.41707031 5.40726562 10.02164063 4.42578125 10.64453125 C2 12 2 12 0 12 C0 8.04 0 4.08 0 0 Z " fill="#484755" transform="translate(119,135)"/>
<path d="M0 0 C1.65 0 3.3 0 5 0 C5 2.64 5 5.28 5 8 C4.01 8.495 4.01 8.495 3 9 C2.01 8.67 1.02 8.34 0 8 C-0.66 9.65 -1.32 11.3 -2 13 C-4.31 13 -6.62 13 -9 13 C-9 11.02 -9 9.04 -9 7 C-6.09399739 5.74335022 -4.20395416 5 -1 5 C-0.67 3.35 -0.34 1.7 0 0 Z " fill="#DBE5F3" transform="translate(125,66)"/>
<path d="M0 0 C1.4540625 0.0309375 1.4540625 0.0309375 2.9375 0.0625 C3.85047308 5.03313121 3.85047308 9.09186879 2.9375 14.0625 C0.6275 14.0625 -1.6825 14.0625 -4.0625 14.0625 C-4.0625 11.39583333 -4.0625 8.72916667 -4.0625 6.0625 C-4.083125 5.216875 -4.10375 4.37125 -4.125 3.5 C-4.03138354 -0.1510421 -3.71368291 0.07578945 0 0 Z " fill="#C6D9EE" transform="translate(110.0625,42.9375)"/>
<path d="M0 0 C2.14915785 3.22373677 2.38286803 4.26703674 2 8 C0 10 0 10 -2.9375 10.25 C-6 10 -6 10 -9 8 C-9.43566323 5.16818902 -9.39684676 3.63936422 -7.875 1.1875 C-5.14012639 -0.54458662 -3.16259871 -0.40373601 0 0 Z " fill="#2A62E9" transform="translate(69,72)"/>
<path d="M0 0 C1.37478516 0.01740234 1.37478516 0.01740234 2.77734375 0.03515625 C3.69644531 0.04417969 4.61554688 0.05320312 5.5625 0.0625 C6.27277344 0.07410156 6.98304687 0.08570312 7.71484375 0.09765625 C8.04484375 1.08765625 8.37484375 2.07765625 8.71484375 3.09765625 C9.37484375 3.42765625 10.03484375 3.75765625 10.71484375 4.09765625 C11.52734375 7.47265625 11.52734375 7.47265625 11.71484375 11.09765625 C10.54296875 12.8046875 10.54296875 12.8046875 8.71484375 14.09765625 C6.3046875 14.4609375 6.3046875 14.4609375 3.65234375 14.41015625 C2.77449219 14.40628906 1.89664063 14.40242188 0.9921875 14.3984375 C-1.28515625 14.09765625 -1.28515625 14.09765625 -3.28515625 12.09765625 C-3.515625 9.53125 -3.515625 9.53125 -3.47265625 6.53515625 C-3.46621094 5.54386719 -3.45976563 4.55257812 -3.453125 3.53125 C-3.23369406 0.35205283 -3.18007344 0.13590057 0 0 Z M-1.16015625 3.28515625 C-2.68200301 5.73702047 -2.72081948 7.26584527 -2.28515625 10.09765625 C1.16730199 12.39929507 2.66223088 12.44255947 6.71484375 12.09765625 C8.95551597 10.27783163 8.95551597 10.27783163 8.96484375 7.66015625 C8.89452191 4.8566126 8.89452191 4.8566126 6.71484375 2.09765625 C3.55224504 1.69392024 1.57471736 1.55306963 -1.16015625 3.28515625 Z " fill="#344A8D" transform="translate(62.28515625,69.90234375)"/>
<path d="M0 0 C2.69884268 -0.49069867 4.42218486 -0.37145259 6.75 1.125 C10.58231866 4.29657406 13.64289936 7.56865079 16 12 C16.25 14.875 16.25 14.875 16 17 C14.02 17.99 14.02 17.99 12 19 C11.67 16.03 11.34 13.06 11 10 C10.34 10 9.68 10 9 10 C8.67 9.34 8.34 8.68 8 8 C4.97065509 7.34227572 4.97065509 7.34227572 2 7 C2 6.67 2 6.34 2 6 C3.65 5.67 5.3 5.34 7 5 C4.69 4.34 2.38 3.68 0 3 C0 2.01 0 1.02 0 0 Z " fill="#4963AB" transform="translate(67,28)"/>
<path d="M0 0 C1.98 0 3.96 0 6 0 C6 4.62 6 9.24 6 14 C4.02 14 2.04 14 0 14 C0 9.38 0 4.76 0 0 Z " fill="#A7BAE2" transform="translate(152,66)"/>
<path d="M0 0 C1.98 0 3.96 0 6 0 C6.02686553 1.97909398 6.04633375 3.95828971 6.0625 5.9375 C6.07410156 7.03964844 6.08570313 8.14179687 6.09765625 9.27734375 C6 12 6 12 5 13 C3.35 13 1.7 13 0 13 C0 8.71 0 4.42 0 0 Z " fill="#E6EAED" transform="translate(161,66)"/>
<path d="M0 0 C1.32 0 2.64 0 4 0 C4 3.66666667 4 7.33333333 4 11 C3.34 11 2.68 11 2 11 C1.67 21.89 1.34 32.78 1 44 C0.67 44 0.34 44 0 44 C0 29.48 0 14.96 0 0 Z " fill="#7480A5" transform="translate(99,59)"/>
<path d="M0 0 C0.33 1.98 0.66 3.96 1 6 C-2.3 6 -5.6 6 -9 6 C-9 4.35 -9 2.7 -9 1 C-5.846632 0.29925156 -3.27275026 0 0 0 Z " fill="#F2B8BC" transform="translate(83,106)"/>
<path d="M0 0 C0.33 0 0.66 0 1 0 C1 3.3 1 6.6 1 10 C1.66 10 2.32 10 3 10 C3.33 9.34 3.66 8.68 4 8 C4 9.32 4 10.64 4 12 C3.34 12 2.68 12 2 12 C2.33 14.31 2.66 16.62 3 19 C-0.875 18.125 -0.875 18.125 -2 17 C-2.125 14.5 -2.125 14.5 -2 12 C-1.67 11.67 -1.34 11.34 -1 11 C-0.76636119 9.15108054 -0.58696365 7.29511969 -0.4375 5.4375 C-0.35371094 4.42558594 -0.26992188 3.41367187 -0.18359375 2.37109375 C-0.12300781 1.58863281 -0.06242187 0.80617187 0 0 Z " fill="#5F70AA" transform="translate(49,32)"/>
<path d="M0 0 C12.87 0 25.74 0 39 0 C39 0.33 39 0.66 39 1 C27.45 1 15.9 1 4 1 C3.67 2.32 3.34 3.64 3 5 C1.5 3.625 1.5 3.625 0 2 C0 1.34 0 0.68 0 0 Z " fill="#4D4957" transform="translate(20,113)"/>
<path d="M0 0 C1.5625 1.25 1.5625 1.25 3 3 C2.6875 5.1875 2.6875 5.1875 2 7 C0.35 7.33 -1.3 7.66 -3 8 C-3.33 8.99 -3.66 9.98 -4 11 C-4.33 11 -4.66 11 -5 11 C-5.44041451 5.62694301 -5.44041451 5.62694301 -5 3 C-2.5 1 -2.5 1 0 0 Z " fill="#3E4C80" transform="translate(55,27)"/>
<path d="M0 0 C0.33 0.66 0.66 1.32 1 2 C3.64 2 6.28 2 9 2 C9 4.31 9 6.62 9 9 C8.67 9 8.34 9 8 9 C8 7.02 8 5.04 8 3 C6.02 3 4.04 3 2 3 C1.67 4.65 1.34 6.3 1 8 C0.34 7.67 -0.32 7.34 -1 7 C-1 5.68 -1 4.36 -1 3 C-2.98 3 -4.96 3 -7 3 C-7 4.98 -7 6.96 -7 9 C-7.33 9 -7.66 9 -8 9 C-8 6.36 -8 3.72 -8 1 C-6.865625 1.020625 -5.73125 1.04125 -4.5625 1.0625 C-1.18424326 1.41577477 -1.18424326 1.41577477 0 0 Z " fill="#E0F5FC" transform="translate(159,48)"/>
<path d="M0 0 C2.31 0.66 4.62 1.32 7 2 C7.33 3.65 7.66 5.3 8 7 C7.278125 6.525625 6.55625 6.05125 5.8125 5.5625 C3.10524774 4.05847097 1.03805725 3.43400818 -2 3 C-2 3.99 -2 4.98 -2 6 C0.31 6.33 2.62 6.66 5 7 C5 7.33 5 7.66 5 8 C2.36 8 -0.28 8 -3 8 C-3.33 6.35 -3.66 4.7 -4 3 C-2.68 2.67 -1.36 2.34 0 2 C0 1.34 0 0.68 0 0 Z " fill="#33385E" transform="translate(69,25)"/>
<path d="M0 0 C0 3 0 3 -1.5 4.6875 C-1.995 5.120625 -2.49 5.55375 -3 6 C-2.67 6.66 -2.34 7.32 -2 8 C-6.95 8 -11.9 8 -17 8 C-17 7.67 -17 7.34 -17 7 C-16.02160156 6.85304688 -16.02160156 6.85304688 -15.0234375 6.703125 C-8.97158737 5.66770521 -4.44801335 4.44801335 0 0 Z " fill="#E7E7EF" transform="translate(112,104)"/>
<path d="M0 0 C3.3 0 6.6 0 10 0 C12 4 12 4 11.625 6.25 C11.41875 6.8275 11.2125 7.405 11 8 C9 4.25 9 4.25 9 2 C4.545 2.495 4.545 2.495 0 3 C0 2.01 0 1.02 0 0 Z " fill="#D6C2C5" transform="translate(74,104)"/>
<path d="M0 0 C0.66 0 1.32 0 2 0 C2 9.24 2 18.48 2 28 C1.67 28 1.34 28 1 28 C0.67 20.08 0.34 12.16 0 4 C-0.66 4 -1.32 4 -2 4 C-1.34 2.68 -0.68 1.36 0 0 Z " fill="#D0CFD6" transform="translate(30,72)"/>
<path d="M0 0 C1.98 0 3.96 0 6 0 C6 1.98 6 3.96 6 6 C4.02 6 2.04 6 0 6 C0 4.02 0 2.04 0 0 Z " fill="#6382CE" transform="translate(161,66)"/>
<path d="M0 0 C1.98 0 3.96 0 6 0 C6 1.98 6 3.96 6 6 C4.02 6 2.04 6 0 6 C0 4.02 0 2.04 0 0 Z " fill="#6480CC" transform="translate(152,66)"/>
<path d="M0 0 C1.98 0 3.96 0 6 0 C6 1.98 6 3.96 6 6 C4.02 6 2.04 6 0 6 C0 4.02 0 2.04 0 0 Z " fill="#5C84CF" transform="translate(152,51)"/>
<path d="M0 0 C1.98 0 3.96 0 6 0 C6 1.98 6 3.96 6 6 C4.02 6 2.04 6 0 6 C0 4.02 0 2.04 0 0 Z " fill="#688ACE" transform="translate(161,51)"/>
<path d="M0 0 C1.98 0 3.96 0 6 0 C6 1.98 6 3.96 6 6 C4.02 6 2.04 6 0 6 C0 4.02 0 2.04 0 0 Z " fill="#5E83D2" transform="translate(152,44)"/>
<path d="M0 0 C1.2065625 0.0309375 1.2065625 0.0309375 2.4375 0.0625 C2.4375 2.0425 2.4375 4.0225 2.4375 6.0625 C0.4575 6.0625 -1.5225 6.0625 -3.5625 6.0625 C-3.605221 4.39638095 -3.60313832 2.72867115 -3.5625 1.0625 C-2.5625 0.0625 -2.5625 0.0625 0 0 Z " fill="#6081CF" transform="translate(109.5625,65.9375)"/>
<path d="M0 0 C0 0.33 0 0.66 0 1 C-1.98 1 -3.96 1 -6 1 C-6 2.32 -6 3.64 -6 5 C-6.99 5.33 -7.98 5.66 -9 6 C-9 4.35 -9 2.7 -9 1 C-10.98 1.33 -12.96 1.66 -15 2 C-15.33 1.34 -15.66 0.68 -16 0 C-11.40456709 -2.29771645 -4.82752346 -1.24581251 0 0 Z " fill="#E0EEF9" transform="translate(112,50)"/>
<path d="M0 0 C1.98 0 3.96 0 6 0 C6 1.98 6 3.96 6 6 C4.33388095 6.042721 2.66617115 6.04063832 1 6 C0 5 0 5 -0.0625 2.4375 C-0.041875 1.633125 -0.02125 0.82875 0 0 Z " fill="#5E82D3" transform="translate(106,44)"/>
<path d="M0 0 C1.98 0 3.96 0 6 0 C6 1.65 6 3.3 6 5 C4.34385343 5.38218767 2.67542976 5.71395102 1 6 C0 5 0 5 -0.0625 2.4375 C-0.041875 1.633125 -0.02125 0.82875 0 0 Z " fill="#5782C4" transform="translate(161,59)"/>
<path d="M0 0 C1.65 0 3.3 0 5 0 C5 1.98 5 3.96 5 6 C3.35 6 1.7 6 0 6 C0 4.02 0 2.04 0 0 Z " fill="#F1BCC3" transform="translate(53,106)"/>
<path d="M0 0 C1.65 0 3.3 0 5 0 C5 1.98 5 3.96 5 6 C3.35 6 1.7 6 0 6 C0 4.02 0 2.04 0 0 Z " fill="#5A76CE" transform="translate(125,66)"/>
<path d="M0 0 C1.65 0 3.3 0 5 0 C5 1.98 5 3.96 5 6 C3.35 6 1.7 6 0 6 C0 4.02 0 2.04 0 0 Z " fill="#5479C8" transform="translate(134,59)"/>
<path d="M0 0 C1.65 0 3.3 0 5 0 C5 1.98 5 3.96 5 6 C3.35 6 1.7 6 0 6 C0 4.02 0 2.04 0 0 Z " fill="#527CD0" transform="translate(143,51)"/>
<path d="M0 0 C1.65 0 3.3 0 5 0 C5 1.98 5 3.96 5 6 C3.35 6 1.7 6 0 6 C0 4.02 0 2.04 0 0 Z " fill="#5D7ACA" transform="translate(98,51)"/>
<path d="M0 0 C1.65 0 3.3 0 5 0 C5 1.98 5 3.96 5 6 C3.35 6 1.7 6 0 6 C0 4.02 0 2.04 0 0 Z " fill="#517BCC" transform="translate(143,44)"/>
<path d="M0 0 C2.475 0.495 2.475 0.495 5 1 C4.67 2.65 4.34 4.3 4 6 C2.68 5.67 1.36 5.34 0 5 C0 3.35 0 1.7 0 0 Z " fill="#EBEBEB" transform="translate(171,44)"/>
<path d="M0 0 C3.06393013 -0.25532751 4.63233212 -0.21861333 7.3125 1.375 C7.869375 1.91125 8.42625 2.4475 9 3 C9 3.66 9 4.32 9 5 C4.545 4.01 4.545 4.01 0 3 C0 2.01 0 1.02 0 0 Z " fill="#3A54A8" transform="translate(67,28)"/>
<path d="M0 0 C1.65 0 3.3 0 5 0 C5 1.65 5 3.3 5 5 C3.35 5 1.7 5 0 5 C0 3.35 0 1.7 0 0 Z " fill="#4068C4" transform="translate(116,74)"/>
<path d="M0 0 C1.65 0 3.3 0 5 0 C5 1.65 5 3.3 5 5 C3.35 5 1.7 5 0 5 C0 3.35 0 1.7 0 0 Z " fill="#456BC7" transform="translate(143,74)"/>
<path d="M0 0 C1.65 0 3.3 0 5 0 C5 1.65 5 3.3 5 5 C3.35 5 1.7 5 0 5 C0 3.35 0 1.7 0 0 Z " fill="#4A69C7" transform="translate(107,74)"/>
<path d="M0 0 C-1.39195915 2.7839183 -3.15575779 2.97898997 -6 4 C-6 5.32 -6 6.64 -6 8 C-6.99 8 -7.98 8 -9 8 C-9.22223194 5.25913944 -9.34781139 3.56036279 -7.875 1.1875 C-5.22464043 -0.49106106 -3.06753576 -0.20450238 0 0 Z " fill="#3061DB" transform="translate(69,72)"/>
<path d="M0 0 C1.65 0 3.3 0 5 0 C5 1.65 5 3.3 5 5 C3.35 5 1.7 5 0 5 C0 3.35 0 1.7 0 0 Z " fill="#4A6CBE" transform="translate(171,59)"/>
<path d="M0 0 C1.65 0 3.3 0 5 0 C5 1.65 5 3.3 5 5 C3.35 5 1.7 5 0 5 C0 3.35 0 1.7 0 0 Z " fill="#4970CE" transform="translate(107,52)"/>
<path d="M0 0 C1.65 0 3.3 0 5 0 C5 1.65 5 3.3 5 5 C3.35 5 1.7 5 0 5 C0 3.35 0 1.7 0 0 Z " fill="#466CC5" transform="translate(116,44)"/>
<path d="M0 0 C1.65 0 3.3 0 5 0 C4.67 1.65 4.34 3.3 4 5 C2.68 5 1.36 5 0 5 C0 3.35 0 1.7 0 0 Z " fill="#E9E9EB" transform="translate(171,74)"/>
<path d="M0 0 C1.32 0 2.64 0 4 0 C4.5625 1.9375 4.5625 1.9375 5 4 C4 5 4 5 0.9375 5.0625 C-0.5165625 5.0315625 -0.5165625 5.0315625 -2 5 C-1.34 3.35 -0.68 1.7 0 0 Z " fill="#EAE8E7" transform="translate(135,67)"/>
<path d="M0 0 C2.475 0.495 2.475 0.495 5 1 C5 2.32 5 3.64 5 5 C3.35 5 1.7 5 0 5 C0 3.35 0 1.7 0 0 Z " fill="#E9E9E8" transform="translate(171,52)"/>
<path d="M0 0 C0.99 0.66 1.98 1.32 3 2 C3 3.32 3 4.64 3 6 C2.01 6 1.02 6 0 6 C-0.33 5.34 -0.66 4.68 -1 4 C-4.02934491 3.34227572 -4.02934491 3.34227572 -7 3 C-7 2.67 -7 2.34 -7 2 C-3.6875 0.875 -3.6875 0.875 0 0 Z " fill="#5D5C8B" transform="translate(76,32)"/>
<path d="M0 0 C1.32 0 2.64 0 4 0 C4 1.65 4 3.3 4 5 C2.68 5 1.36 5 0 5 C0 3.35 0 1.7 0 0 Z " fill="#3A61C7" transform="translate(153,74)"/>
<path d="M0 0 C0.33 0.66 0.66 1.32 1 2 C1.66 2 2.32 2 3 2 C2.67 4.97 2.34 7.94 2 11 C1.67 11 1.34 11 1 11 C0.67 7.37 0.34 3.74 0 0 Z " fill="#BDC5D5" transform="translate(100,68)"/>
<path d="M0 0 C3.3 0 6.6 0 10 0 C9.67 0.66 9.34 1.32 9 2 C7.906875 1.95875 6.81375 1.9175 5.6875 1.875 C1.91107771 1.67925334 1.91107771 1.67925334 -1 4 C-0.67 2.68 -0.34 1.36 0 0 Z " fill="#343E6C" transform="translate(60,70)"/>
<path d="M0 0 C0.66 0 1.32 0 2 0 C2.33 2.64 2.66 5.28 3 8 C1.5 6.8125 1.5 6.8125 0 5 C-0.1875 2.3125 -0.1875 2.3125 0 0 Z " fill="#AC9DC0" transform="translate(76,38)"/>
</svg>
